<svg width="368" height="114" viewBox="0 0 368 114" xmlns="http://www.w3.org/2000/svg" xmlns:xlink="http://www.w3.org/1999/xlink"><title>Logo</title><defs><path id="a" d="M13.082 12.944V0H0v12.944h13.082z"/><path id="c" d="M0 0v13.242h11.08V0z"/><path id="e" d="M64.288 24.957H0V0h64.288z"/><path id="g" d="M0 114h369V0H0z"/></defs><g fill="none" fill-rule="evenodd"><g transform="translate(354)"><mask id="b" fill="#fff"><use xlink:href="#a"/></mask><path d="M11.109 11.116c-1.26 1.215-2.794 1.828-4.561 1.828-1.845 0-3.393-.627-4.664-1.874C.634 9.816 0 8.296 0 6.46c0-1.892.69-3.458 2.043-4.708C3.318.575 4.826 0 6.548 0c1.795 0 3.335.62 4.614 1.899 1.271 1.247 1.92 2.77 1.92 4.561 0 1.85-.666 3.401-1.973 4.656zM2.692 2.71C1.654 3.77 1.144 5.013 1.144 6.461c0 1.505.531 2.78 1.583 3.817 1.04 1.061 2.326 1.594 3.807 1.594 1.501 0 2.762-.54 3.8-1.597 1.051-1.047 1.586-2.33 1.586-3.815 0-1.447-.52-2.69-1.569-3.749-1.055-1.075-2.316-1.61-3.817-1.61-1.512 0-2.787.535-3.842 1.61zm.984 7.35V2.89c.45 0 1.123.003 2.018.003.9 0 1.403.014 1.498.018.585.045 1.045.164 1.434.374.652.354.974.91.974 1.7 0 .605-.18 1.032-.524 1.295-.333.28-.76.438-1.253.494.446.098.803.228 1.03.413.443.347.638.883.638 1.601v.652c0 .056 0 .133.027.207a.78.78 0 0 0 .036.213l.068.2H7.808a5.992 5.992 0 0 1-.113-.984c-.021-.442-.046-.729-.117-.883a.824.824 0 0 0-.527-.515c-.153-.067-.354-.109-.663-.123l-.407-.024h-.4v2.53H3.676zm3.47-5.76c-.28-.092-.63-.144-1.119-.144h-.446v2.077h.73c.442 0 .786-.087 1.044-.256.238-.182.372-.469.372-.862 0-.381-.205-.658-.58-.815z" fill="#FFF" mask="url(#b)"/></g><g transform="translate(0 94)"><mask id="d" fill="#fff"><use xlink:href="#c"/></mask><path d="M7.934 6.413c-.752.588-2.211.612-3.51.857-1.277.244-2.371.734-2.371 2.276 0 1.37 1.094 1.86 2.279 1.86 2.554 0 3.602-1.713 3.602-2.864V6.414zm3.146 6.486c-.342.22-.775.343-1.39.343-1.004 0-1.641-.588-1.641-1.958-1.073 1.345-2.508 1.958-4.15 1.958C1.756 13.242 0 12.214 0 9.692c0-2.862 1.983-3.474 3.99-3.89 2.143-.44 3.967-.293 3.967-1.86 0-1.812-1.39-2.105-2.622-2.105-1.642 0-2.85.538-2.94 2.399H.455C.57 1.1 2.828 0 5.45 0c2.12 0 4.423.514 4.423 3.476v6.51c0 .98 0 1.42.615 1.42.16 0 .342-.025.593-.122v1.615z" fill="#FFF" mask="url(#d)"/></g><g transform="translate(19 89)"><mask id="f" fill="#fff"><use xlink:href="#e"/></mask><path d="M22.69.066a1.91 1.91 0 0 0-2.341 1.358A1.924 1.924 0 0 0 21.7 3.78a1.912 1.912 0 0 0 2.342-1.36A1.923 1.923 0 0 0 22.69.066m25.787 5.482c-2.278 0-3.6 1.864-3.6 1.864l-.42-1.154a.563.563 0 0 0-.49-.345h-1.092a.548.548 0 0 0-.547.55v11.353c0 .304.244.55.547.55h2.367a.549.549 0 0 0 .546-.55V9.867c1.382-1.684 3.144-1.108 3.503-.969.36.14.628-.031.734-.273l.814-1.852c.19-.436-.085-1.225-2.362-1.225m-15.39 10.07c-.99 0-1.902-.26-2.635-.703v-4.71c.568-.932 1.536-1.545 2.635-1.545 1.752 0 3.173 1.559 3.173 3.479 0 1.922-1.42 3.48-3.173 3.48m.644-10.071c-1.63 0-3.107.71-4.19 1.866v-.002l-.421-1.154a.563.563 0 0 0-.49-.345h-1.093a.548.548 0 0 0-.546.55v17.944c0 .305.244.55.546.55h2.368a.548.548 0 0 0 .547-.55v-6.224a9.904 9.904 0 0 0 3.279.548c3.32 0 6.01-2.95 6.01-6.592 0-3.64-2.69-6.591-6.01-6.591m-10.351.365h-2.368a.548.548 0 0 0-.547.55v11.353c0 .304.245.55.547.55h2.368a.549.549 0 0 0 .546-.55V6.463a.548.548 0 0 0-.546-.55m-5.49 0h-2.348c-.2 0-.414.157-.476.349L13.128 12.3l-3.33-6.429a.661.661 0 0 0-.533-.323h-.237a.66.66 0 0 0-.533.323l-3.33 6.43-1.938-6.04a.536.536 0 0 0-.476-.348H.403c-.3 0-.47.236-.378.524L3.86 18.384a.535.535 0 0 0 .477.347h.349c.2 0 .44-.146.532-.323l3.928-7.586 3.93 7.586a.661.661 0 0 0 .532.323h.348a.534.534 0 0 0 .477-.347l3.835-11.947c.093-.288-.077-.524-.378-.524m40.023 9.706c-1.808 0-3.278-1.56-3.278-3.48 0-1.918 1.47-3.479 3.278-3.479s3.278 1.561 3.278 3.479c0 1.92-1.47 3.48-3.278 3.48m0-10.071c-3.52 0-6.376 2.951-6.376 6.591 0 3.641 2.855 6.592 6.376 6.592 3.52 0 6.375-2.95 6.375-6.592 0-3.64-2.855-6.591-6.375-6.591" fill="#FFF" mask="url(#f)"/></g><path d="M100.87 96.277c-.304-1.562-1.357-2.475-2.995-2.475-2.879 0-3.768 2.331-3.768 4.854 0 2.283 1.006 4.542 3.533 4.542 1.92 0 3.066-1.154 3.324-3.028H103c-.445 3.028-2.294 4.83-5.336 4.83-3.698 0-5.664-2.643-5.664-6.344C92 94.93 93.873 92 97.71 92c2.74 0 4.939 1.322 5.219 4.277h-2.059z" fill="#FFF"/><path d="M109 103.198c2.128 0 3.849-1.683 3.849-4.686 0-3.028-1.721-4.71-3.848-4.71-2.129 0-3.849 1.682-3.849 4.71 0 3.003 1.72 4.686 3.849 4.686M109 92c3.92 0 5.999 2.86 5.999 6.512 0 3.628-2.08 6.488-6 6.488s-6-2.86-6-6.488c0-3.653 2.08-6.512 6-6.512m9.001.295h1.876v1.868h.047c.89-1.426 2.251-2.163 3.916-2.163 1.477 0 2.837.614 3.33 2.163.82-1.352 2.25-2.163 3.798-2.163 2.415 0 4.033 1.057 4.033 3.687V105h-1.993v-8.33c0-1.574-.398-2.827-2.344-2.827-1.924 0-3.166 1.278-3.166 3.244V105h-1.993v-8.33c0-1.648-.493-2.827-2.275-2.827-2.368 0-3.236 2.286-3.236 3.244V105H118V92.295zm27.388 1.459c-2.56 0-3.547 2.291-3.547 4.56 0 2.385 1.033 4.583 3.66 4.583 2.603 0 3.479-2.315 3.479-4.676 0-2.27-1.123-4.467-3.592-4.467zM140 92.28h1.909v1.637h.044c.63-1.333 2.11-1.917 3.704-1.917 3.57 0 5.343 2.946 5.343 6.36 0 3.415-1.75 6.291-5.298 6.291-1.19 0-2.896-.468-3.749-1.894h-.044V109H140V92.28zm18.877 6.015c-.747.577-2.195.602-3.486.842-1.267.24-2.353.721-2.353 2.235 0 1.345 1.086 1.826 2.262 1.826 2.535 0 3.577-1.683 3.577-2.811v-2.092zm3.123 6.368c-.34.217-.77.337-1.38.337-.996 0-1.63-.577-1.63-1.922-1.064 1.32-2.49 1.922-4.12 1.922-2.127 0-3.87-1.01-3.87-3.485 0-2.81 1.97-3.412 3.961-3.82 2.128-.433 3.939-.288 3.939-1.826 0-1.778-1.381-2.067-2.604-2.067-1.63 0-2.829.529-2.92 2.355h-1.923c.113-3.076 2.354-4.157 4.957-4.157 2.104 0 4.39.504 4.39 3.412v6.392c0 .961 0 1.394.612 1.394.158 0 .34-.025.588-.12v1.585zm4-12.368h1.869v2.015h.047c.841-1.573 2.196-2.31 3.925-2.31 3.178 0 4.159 1.917 4.159 4.645V105h-1.986v-8.601c0-1.548-.934-2.556-2.453-2.556-2.407 0-3.575 1.696-3.575 3.981V105H166V92.295zm16.886 13.465c-.886 2.371-1.682 3.24-3.41 3.24-.454 0-.908-.047-1.34-.212v-1.831c.364.117.75.282 1.136.282.796 0 1.228-.399 1.592-1.104l.795-2.066L177 92h2.181l3.433 9.932h.045L185.954 92H188l-5.114 13.76zM13.876 12.126v45.768h13.248c6.744 0 11.483-3.42 14.156-10.237 1.457-3.746 2.185-8.197 2.185-13.372 0-7.135-1.097-12.626-3.282-16.433-2.195-3.838-6.554-5.726-13.059-5.726H13.876zM40.133 1.52c4.819 1.603 8.71 4.584 11.672 8.87 2.394 3.492 4.03 7.258 4.908 11.31C57.581 25.752 58 29.62 58 33.305c0 9.289-1.825 17.179-5.487 23.62C47.565 65.642 39.883 70 29.53 70H0V0h29.529c4.25.071 7.78.571 10.604 1.52zM98.435 39.5C97.2 32.368 94.255 28.603 87.7 28.603c-8.55 0-11.02 6.935-11.21 10.899h21.945zM76.49 48.419c.38 8.918 4.56 12.98 12.065 12.98 5.415 0 9.785-3.468 10.64-6.639h11.875C107.27 66.847 99.195 72 88.08 72 72.596 72 63 60.903 63 45.05 63 29.69 73.165 18 88.08 18c16.72 0 24.795 14.664 23.845 30.418H76.49zm54.475 5.548c.096 6.143 5.09 8.62 10.467 8.62 3.938 0 8.931-1.585 8.931-6.54 0-4.26-5.665-5.746-15.461-7.926-7.875-1.784-15.75-4.657-15.75-13.674C119.152 21.368 130.1 18 140.76 18c10.852 0 20.839 3.765 21.896 16.348H149.69c-.384-5.45-4.418-6.935-9.315-6.935-3.073 0-7.586.594-7.586 4.756 0 5.053 7.682 5.747 15.46 7.629C156.221 41.68 164 44.653 164 54.165 164 67.64 152.668 72 141.336 72c-11.524 0-22.76-4.459-23.336-18.033h12.965z" fill="#FFF"/><mask id="h" fill="#fff"><use xlink:href="#g"/></mask><path d="M170 70h14V19.314h-14V70zm0-58.53h14V0h-14v11.47zm54.105 32.874c0-8.32-2.77-15.747-11.557-15.747-7.642 0-10.985 6.932-10.985 14.558 0 7.33 2.675 15.35 10.985 15.35 7.737 0 11.557-6.832 11.557-14.161zM237 67.32c0 8.418-2.865 22.68-25.599 22.68-9.742 0-21.109-4.754-21.777-16.44h13.468c1.242 5.249 5.349 7.031 10.124 7.031 7.546 0 10.985-5.348 10.89-12.676V61.18h-.191c-2.962 5.348-8.884 7.923-14.806 7.923-14.805 0-21.109-11.686-21.109-25.75C188 30.084 195.355 18 209.205 18c6.495 0 11.461 2.278 14.71 8.22h.19v-6.834H237v47.935zm7-47.95h12.804v7.052h.284c3.415-5.68 9.295-8.422 14.987-8.422C286.396 18 290 26.323 290 38.858V70h-13.468V41.405c0-8.324-2.371-12.437-8.631-12.437-7.303 0-10.433 4.21-10.433 14.493V70H244V19.37zM299 70h14V19.314h-14V70zm0-58.53h14V0h-14v11.47zm39.976 7.847H349v9.388h-10.024v25.298c0 4.743 1.157 5.93 5.782 5.93 1.447 0 2.796-.1 4.242-.396v10.969c-2.314.395-5.302.494-8 .494-8.386 0-15.71-1.977-15.71-12.154v-30.14H317v-9.389h8.29V4h13.686v15.317z" fill="#FFF" mask="url(#h)"/></g></svg>